<svg width="11" height="18" viewBox="0 0 11 18" fill="currentColor" xmlns="http://www.w3.org/2000/svg">
<path d="M9.90096 0.527951L7.50241 0.524414C4.80773 0.524414 3.06631 2.16652 3.06631 4.70813V6.63711H0.654675C0.446282 6.63711 0.277527 6.79239 0.277527 6.98392V9.77879C0.277527 9.97033 0.446474 10.1254 0.654675 10.1254H3.06631V17.1778C3.06631 17.3693 3.23506 17.5244 3.44346 17.5244H6.58995C6.79834 17.5244 6.9671 17.3691 6.9671 17.1778V10.1254H9.78685C9.99525 10.1254 10.164 9.97033 10.164 9.77879L10.1652 6.98392C10.1652 6.89196 10.1253 6.80389 10.0547 6.7388C9.98409 6.67372 9.88787 6.63711 9.78782 6.63711H6.9671V5.00189C6.9671 4.21594 7.17087 3.81695 8.2848 3.81695L9.90057 3.81642C10.1088 3.81642 10.2775 3.66114 10.2775 3.46978V0.87459C10.2775 0.683408 10.109 0.528305 9.90096 0.527951Z" fill="#404D63"/>
</svg>
