<svg width="17" height="17" viewBox="0 0 17 17" fill="currentColor" xmlns="http://www.w3.org/2000/svg">
<path d="M11.862 0.524414H4.69286C2.25825 0.524414 0.277527 2.50522 0.277527 4.93983V12.109C0.277527 14.5437 2.25825 16.5244 4.69286 16.5244H11.862C14.2968 16.5244 16.2775 14.5436 16.2775 12.109V4.93983C16.2776 2.50522 14.2968 0.524414 11.862 0.524414ZM14.858 12.109C14.858 13.7609 13.514 15.1048 11.8621 15.1048H4.69286C3.04101 15.1049 1.69713 13.7609 1.69713 12.109V4.93983C1.69713 3.28799 3.04101 1.94401 4.69286 1.94401H11.862C13.5139 1.94401 14.8579 3.28799 14.8579 4.93983L14.858 12.109Z" fill="#404D63"/>
<path d="M8.27751 4.40186C6.00417 4.40186 4.15472 6.25131 4.15472 8.52466C4.15472 10.7979 6.00417 12.6472 8.27751 12.6472C10.5508 12.6472 12.4003 10.7979 12.4003 8.52466C12.4003 6.25131 10.5508 4.40186 8.27751 4.40186ZM8.27751 11.2275C6.78703 11.2275 5.57431 10.015 5.57431 8.52456C5.57431 7.03398 6.78694 5.82136 8.27751 5.82136C9.76809 5.82136 10.9807 7.03398 10.9807 8.52456C10.9807 10.015 9.768 11.2275 8.27751 11.2275Z" fill="#404D63"/>
<path d="M12.5732 3.19824C12.2997 3.19824 12.031 3.30897 11.8378 3.50298C11.6437 3.69604 11.5321 3.96482 11.5321 4.23928C11.5321 4.51288 11.6438 4.78156 11.8378 4.97557C12.0309 5.16864 12.2997 5.28031 12.5732 5.28031C12.8476 5.28031 13.1155 5.16864 13.3095 4.97557C13.5035 4.78156 13.6142 4.51279 13.6142 4.23928C13.6142 3.96482 13.5035 3.69604 13.3095 3.50298C13.1164 3.30897 12.8476 3.19824 12.5732 3.19824Z" fill="#404D63"/>
</svg>
