<svg width="15" height="15" viewBox="0 0 15 15" fill="none" xmlns="http://www.w3.org/2000/svg">
<path d="M7.5 1.43311C5.70132 1.43311 4.23334 2.90108 4.23334 4.69978V5.63311H3.30001C2.78434 5.63311 2.36668 6.05078 2.36668 6.56644V12.1664C2.36668 12.6821 2.78434 13.0998 3.30001 13.0998H11.7C12.2156 13.0998 12.6334 12.6821 12.6334 12.1664V6.56644C12.6334 6.05078 12.2156 5.63311 11.7 5.63311H5.16668V4.69978C5.16668 3.40539 6.20563 2.36644 7.5 2.36644C8.51939 2.36644 9.37734 3.01728 9.69755 3.9223C9.7169 3.98143 9.74795 4.03609 9.78874 4.08306C9.82954 4.13003 9.87936 4.16836 9.93524 4.19581C9.99104 4.22325 10.0518 4.23925 10.1139 4.24285C10.176 4.24647 10.2383 4.23762 10.2969 4.21683C10.3556 4.19605 10.4095 4.16374 10.4555 4.12182C10.5015 4.07989 10.5386 4.0292 10.5647 3.97271C10.5908 3.91622 10.6053 3.85509 10.6075 3.7929C10.6096 3.73071 10.5993 3.66872 10.5771 3.61058C10.1282 2.34186 8.91756 1.43311 7.5 1.43311Z" fill="#09CE70"/>
<path fill-rule="evenodd" clip-rule="evenodd" d="M6.81938 9.58029L8.78685 7.18896L9.6777 7.92333L6.95432 11.2334L5.16661 9.66773L5.92659 8.79833L6.81938 9.58029Z" fill="white"/>
</svg>
