<svg width="20" height="20" fill="none" xmlns="http://www.w3.org/2000/svg"><mask id="a" style="mask-type:luminance" maskUnits="userSpaceOnUse" x="0" y="0" width="20" height="20"><path d="M20 0H0v20h20V0Z" fill="#fff"/></mask><g mask="url(#a)"><mask id="b" style="mask-type:luminance" maskUnits="userSpaceOnUse" x="0" y="0" width="20" height="20"><path d="M0 0h20v20H0V0Z" fill="#fff"/></mask><g mask="url(#b)" fill-rule="evenodd" clip-rule="evenodd" fill="#404D63"><path d="M15.1 19.83c.23.23.6.23.83 0l3.9-3.9a.59.59 0 0 0 0-.83L4.9.17a.59.59 0 0 0-.83 0l-3.9 3.9a.59.59 0 0 0 0 .83L15.1 19.83Zm.41-1.24L1.41 4.49 4.5 1.4l14.1 14.1-3.08 3.08Z"/><path d="M1.82 6.55c.22.23.6.23.82 0l1.12-1.12a.59.59 0 0 0-.82-.83L1.82 5.72a.59.59 0 0 0 0 .83Z"/></g><path fill-rule="evenodd" clip-rule="evenodd" d="M3.48 8.21c.23.23.6.23.83 0l1.95-1.95a.59.59 0 0 0-.83-.83L3.48 7.38a.59.59 0 0 0 0 .83ZM5.14 9.87c.23.23.6.23.83 0l1.12-1.12a.59.59 0 0 0-.83-.83L5.14 9.04a.59.59 0 0 0 0 .83ZM6.8 11.53c.23.23.6.23.83 0l1.95-1.95a.59.59 0 1 0-.83-.83L6.8 10.71a.59.59 0 0 0 0 .82ZM8.47 13.2c.22.23.6.23.82 0l1.12-1.12a.59.59 0 0 0-.82-.83l-1.12 1.12a.59.59 0 0 0 0 .83ZM10.13 14.86c.23.23.6.23.83 0l1.95-1.95a.59.59 0 1 0-.83-.83l-1.95 1.95a.59.59 0 0 0 0 .83ZM11.8 16.52c.22.23.6.23.82 0l1.12-1.12a.59.59 0 0 0-.83-.83L11.8 15.7a.59.59 0 0 0 0 .83Z" fill="#404D63"/><mask id="c" style="mask-type:luminance" maskUnits="userSpaceOnUse" x="0" y="0" width="20" height="20"><path d="M0 0h20v20H0V0Z" fill="#fff"/></mask><g mask="url(#c)" fill-rule="evenodd" clip-rule="evenodd" fill="#404D63"><path d="M13.45 18.18c.23.23.6.23.83 0l1.95-1.95a.59.59 0 0 0-.83-.83l-1.95 1.96a.59.59 0 0 0 0 .82ZM12.87 9.8c.23.23.6.23.83 0l3.9-3.9 1.08-1.08a.59.59 0 0 0 0-.83L16.5 1.83l-.5-.5a.59.59 0 0 0-.83 0L10.2 6.3a.59.59 0 0 0 .83.83l4.56-4.57 1.84 1.85-.65.66-3.9 3.9a.59.59 0 0 0 0 .83ZM.17 19.83c.15.15.37.2.58.15l2.49-.73c.93-.27 1.79-.78 2.48-1.47L9.8 13.7a.59.59 0 0 0-.83-.83l-4.08 4.08c-.55.55-1.23.96-1.98 1.18l-1.46.42.42-1.46c.22-.75.63-1.43 1.18-1.98l4.08-4.08a.59.59 0 1 0-.83-.83l-4.08 4.08c-.69.7-1.2 1.55-1.47 2.48l-.73 2.49c-.06.2 0 .43.15.58Z"/><path d="M7.09 16.23a.59.59 0 0 0-.51-.65 2.44 2.44 0 0 1-2.16-2.16.59.59 0 0 0-1.17.14 3.62 3.62 0 0 0 3.2 3.19c.31.03.6-.2.64-.52ZM17.34 4.31c.23.23.6.23.83 0l1.66-1.65a.59.59 0 0 0 0-.83L18.17.17a.59.59 0 0 0-.83 0L15.7 1.83a.59.59 0 0 0 0 .83l1.65 1.65Zm-.41-2.07.83-.83.83.83-.83.83-.83-.83ZM14.53 11.46c.23.22.6.22.83 0L17.6 9.2a2.93 2.93 0 0 0 0-4.14.59.59 0 1 0-.82.83c.68.68.68 1.8 0 2.48l-2.25 2.25a.59.59 0 0 0 0 .83Z"/></g></g></svg>